# xmcd
#
# Track frame offsets:
#	150
#	13444
#	28794
#	46207
#	60463
#	73231
#	91512
#	109747
#	128352
#	145482
#
# Disc length: 2282 seconds
# Revision: 0
# Processed by: cddbd v1.5.2PL0 Copyright (c) Steve Scherf et al.
# Submitted via: dBpowerAMP V12.0
#
DISCID=8508e80a
DTITLE=Ben Glover - Do We Burn The Boats?
DYEAR=2012
DGENRE=Country
TTITLE0=Whatever Happens Will
TTITLE1=Uncomplicated
TTITLE2=Memo
TTITLE3=Do What You Do
TTITLE4=War To Believe (All This Time)
TTITLE5=And Only You And I
TTITLE6=No Means Yes
TTITLE7=A Thousand Suns
TTITLE8=Break Away
TTITLE9=Rampart Street
EXTD=
EXTT0=
EXTT1=
EXTT2=
EXTT3=
EXTT4=
EXTT5=
EXTT6=
EXTT7=
EXTT8=
EXTT9=
PLAYORDER=
